<?xml version="1.0" encoding="utf-8"?><svg version="1.1" id="Layer_1" xmlns="http://www.w3.org/2000/svg" xmlns:xlink="http://www.w3.org/1999/xlink" x="0px" y="0px" viewBox="0 0 122.88 122.88" style="enable-background:new 0 0 122.88 122.88" xml:space="preserve"><style type="text/css"><![CDATA[
	.st0{fill-rule:evenodd;clip-rule:evenodd;fill:#D8453E;}
	.st1{fill:#393939;}
]]></style><g><path class="st0" d="M61.44,0c8.42,0,16.45,1.7,23.75,4.77L70.07,19.89c-2.79-0.57-5.67-0.88-8.63-0.88 c-23.43,0-42.43,19-42.43,42.43c0,2.96,0.31,5.84,0.88,8.63L4.76,85.2C1.7,77.89,0,69.86,0,61.44C0,27.51,27.51,0,61.44,0L61.44,0z M118.49,38.59c2.83,7.06,4.39,14.77,4.39,22.85c0,33.93-27.51,61.44-61.44,61.44c-8.08,0-15.79-1.56-22.85-4.39l15.29-15.29 c2.45,0.44,4.98,0.67,7.56,0.67c23.43,0,42.43-19,42.43-42.43c0-2.58-0.23-5.1-0.67-7.56L118.49,38.59L118.49,38.59z"/><path class="st1" d="M25.58,81.64l13.45-13.45l3.79,3.79l-7.99,7.99l3.07,3.07l6.84-6.84l3.57,3.57l-6.84,6.84l7.18,7.18 l-5.46,5.46L25.58,81.64L25.58,81.64z M64.9,71.74l-6.17,6.17l2.02,3.79l-5.55,5.55L44.21,63.01l5.96-5.96l24.21,11.01l-5.7,5.7 L64.9,71.74L64.9,71.74z M59.93,69.08l-8.25-4.41l4.4,8.26L59.93,69.08L59.93,69.08z M58.42,48.8l5.46-5.46l17.61,17.61l-5.46,5.46 L58.42,48.8L58.42,48.8z M67.48,39.74l5.43-5.43L86.2,47.59l8.51-8.51l4.33,4.33L85.09,57.35L67.48,39.74L67.48,39.74z"/></g></svg>